# xmcd CD database file
# Copyright (C) 1996 Ti Kan
#
# Track frame offsets:
# 	150
# 	21147
# 	41485
# 	66062
# 	85755
# 	111087
# 	129579
# 	144582
# 	161957
# 	176155
#
# Disc length: 2695 seconds
#
# Revision: 1
# Processed by: cddbd v1.4b41PL1 Copyright (c) Steve Scherf et al.
# Submitted via: DiscPlay 3.4.1
#
DISCID=870a850a
DTITLE=Hot Chicken Stew - The Brotherhood Recipe
DYEAR=1900
DGENRE=
TTITLE0=When Love Comes Callin'
TTITLE1=Maybe Next Life
TTITLE2=Believer
TTITLE3=Six Feet Under
TTITLE4=Weight of the World
TTITLE5=Love Don't Mean A Thing
TTITLE6=Keep Your Hands on the Boogie
TTITLE7=Still Waitin' Here
TTITLE8=Nowhere to Hide
TTITLE9=Forgiveness
EXTD=
EXTT0=
EXTT1=
EXTT2=
EXTT3=
EXTT4=
EXTT5=
EXTT6=
EXTT7=
EXTT8=
EXTT9=
PLAYORDER=
